<svg width="6" height="10" viewBox="0 0 6 10" version="1.1" xmlns="http://www.w3.org/2000/svg" xmlns:xlink="http://www.w3.org/1999/xlink">
<title>Arrow</title>
<desc>Created using Figma</desc>
<g id="Canvas" transform="translate(-1360 1016)">
<g id="Arrow">
<use xlink:href="#path0_fill" transform="matrix(6.12323e-17 1 -1 6.12323e-17 1365.53 -1016)" fill="#787878"/>
</g>
</g>
<defs>
<path id="path0_fill" d="M 0.146393 0.429321C -0.0487976 0.624512 -0.0487976 0.941162 0.146393 1.13635L 4.38895 5.37891C 4.41336 5.40332 4.43973 5.42468 4.46744 5.44299C 4.66116 5.57092 4.9241 5.5498 5.095 5.38L 9.33865 1.13647C 9.53397 0.941162 9.53397 0.624634 9.33865 0.429321L 9.05582 0.146484C 8.86063 -0.0487061 8.54398 -0.0487061 8.34879 0.146484L 4.74258 3.75269L 1.13638 0.146484C 0.941071 -0.0488281 0.624542 -0.0488281 0.42923 0.146484L 0.146393 0.429321Z"/>
</defs>
</svg>
