<?xml version="1.0" encoding="UTF-8"?>
<svg width="18px" height="18px" viewBox="0 0 18 18" version="1.1" xmlns="http://www.w3.org/2000/svg" xmlns:xlink="http://www.w3.org/1999/xlink">
    <!-- Generator: Sketch 52.2 (67145) - http://www.bohemiancoding.com/sketch -->
    <title>ic/18px/light grey/close</title>
    <desc>Created with Sketch.</desc>
    <g id="ic/18px/light-grey/close" stroke="none" stroke-width="1" fill="none" fill-rule="evenodd">
        <g id="simple-remove" transform="translate(5.000000, 5.000000)" fill="#E3E4E7" fill-rule="nonzero">
            <path d="M7.82857143,0.171428571 C7.6,-0.0571428571 7.25714286,-0.0571428571 7.02857143,0.171428571 L4,3.2 L0.971428571,0.171428571 C0.742857143,-0.0571428571 0.4,-0.0571428571 0.171428571,0.171428571 C-0.0571428571,0.4 -0.0571428571,0.742857143 0.171428571,0.971428571 L3.2,4 L0.171428571,7.02857143 C-0.0571428571,7.25714286 -0.0571428571,7.6 0.171428571,7.82857143 C0.285714286,7.94285714 0.4,8 0.571428571,8 C0.742857143,8 0.857142857,7.94285714 0.971428571,7.82857143 L4,4.8 L7.02857143,7.82857143 C7.14285714,7.94285714 7.31428571,8 7.42857143,8 C7.54285714,8 7.71428571,7.94285714 7.82857143,7.82857143 C8.05714286,7.6 8.05714286,7.25714286 7.82857143,7.02857143 L4.8,4 L7.82857143,0.971428571 C8.05714286,0.742857143 8.05714286,0.4 7.82857143,0.171428571 Z" id="Shape"></path>
        </g>
    </g>
</svg>