<svg width="5" height="11" viewBox="0 0 5 11" version="1.1" xmlns="http://www.w3.org/2000/svg" xmlns:xlink="http://www.w3.org/1999/xlink">
<title>darg drop</title>
<desc>Created using Figma</desc>
<g id="Canvas" transform="translate(-186 48)">
<g id="darg drop">
<use xlink:href="#path0_fill" transform="translate(186 -47.6456)" fill="#E8E8E8"/>
<use xlink:href="#path1_fill" transform="translate(186 -47.6456)" fill="#E8E8E8"/>
<use xlink:href="#path2_fill" transform="translate(186 -47.6456)" fill="#E8E8E8"/>
<use xlink:href="#path3_fill" transform="translate(186 -47.6456)" fill="#E8E8E8"/>
<use xlink:href="#path4_fill" transform="translate(186 -47.6456)" fill="#E8E8E8"/>
<use xlink:href="#path5_fill" transform="translate(186 -47.6456)" fill="#E8E8E8"/>
</g>
</g>
<defs>
<path id="path0_fill" d="M 1.01881 2.08334C 1.58148 2.08334 2.03762 1.61697 2.03762 1.04167C 2.03762 0.466371 1.58148 0 1.01881 0C 0.456137 0 0 0.466371 0 1.04167C 0 1.61697 0.456137 2.08334 1.01881 2.08334Z"/>
<path id="path1_fill" d="M 3.98121 2.08334C 4.54389 2.08334 5.00002 1.61697 5.00002 1.04167C 5.00002 0.466371 4.54389 0 3.98121 0C 3.41854 0 2.9624 0.466371 2.9624 1.04167C 2.9624 1.61697 3.41854 2.08334 3.98121 2.08334Z"/>
<path id="path2_fill" d="M 1.01881 6.31942C 1.58148 6.31942 2.03762 5.85305 2.03762 5.27775C 2.03762 4.70246 1.58148 4.23608 1.01881 4.23608C 0.456137 4.23608 0 4.70246 0 5.27775C 0 5.85305 0.456137 6.31942 1.01881 6.31942Z"/>
<path id="path3_fill" d="M 3.98121 6.31942C 4.54389 6.31942 5.00002 5.85305 5.00002 5.27775C 5.00002 4.70246 4.54389 4.23608 3.98121 4.23608C 3.41854 4.23608 2.9624 4.70246 2.9624 5.27775C 2.9624 5.85305 3.41854 6.31942 3.98121 6.31942Z"/>
<path id="path4_fill" d="M 1.01881 10.5556C 1.58148 10.5556 2.03762 10.0893 2.03762 9.51396C 2.03762 8.93866 1.58148 8.47229 1.01881 8.47229C 0.456137 8.47229 0 8.93866 0 9.51396C 0 10.0893 0.456137 10.5556 1.01881 10.5556Z"/>
<path id="path5_fill" d="M 3.98121 10.5556C 4.54389 10.5556 5.00002 10.0893 5.00002 9.51396C 5.00002 8.93866 4.54389 8.47229 3.98121 8.47229C 3.41854 8.47229 2.9624 8.93866 2.9624 9.51396C 2.9624 10.0893 3.41854 10.5556 3.98121 10.5556Z"/>
</defs>
</svg>
