<svg width="8" height="8" viewBox="0 0 8 8" fill="none" xmlns="http://www.w3.org/2000/svg">
<path d="M5.63438 7.6233L3.58317 5.57244L2.58891 6.56671C2.50308 6.65254 2.37846 6.6879 2.25966 6.66044C2.14088 6.63229 2.04541 6.54508 2.00698 6.42939L0.0181175 0.463116C-0.0241169 0.336765 0.00883623 0.197381 0.102914 0.103303C0.196641 0.00957679 0.336375 -0.0247587 0.462727 0.0185069L6.429 2.00737C6.54471 2.04583 6.6319 2.14126 6.66005 2.26005C6.68787 2.3785 6.6525 2.50312 6.56632 2.5893L5.57206 3.58356L7.62291 5.63474C7.76023 5.77206 7.76023 5.99455 7.62291 6.13187L6.13151 7.62327C5.99416 7.76064 5.7717 7.76064 5.63438 7.6233Z" fill="#B8B8B8"/>
</svg>
