<svg width="8" height="8" viewBox="0 0 8 8" fill="none" xmlns="http://www.w3.org/2000/svg">
<path d="M5.90879 7.89722L3.85759 5.84637L2.86332 6.84063C2.77749 6.92646 2.65288 6.96183 2.53407 6.93436C2.41529 6.90621 2.31983 6.819 2.28139 6.70331L0.292532 0.737042C0.250297 0.61069 0.28325 0.471307 0.377328 0.377229C0.471055 0.283503 0.610789 0.249167 0.737141 0.292433L6.70341 2.28129C6.81912 2.31975 6.90631 2.41519 6.93446 2.53397C6.96228 2.65242 6.92691 2.77704 6.84073 2.86322L5.84647 3.85749L7.89732 5.90867C8.03464 6.04599 8.03464 6.26848 7.89732 6.4058L6.40592 7.8972C6.26858 8.03456 6.04611 8.03456 5.90879 7.89722Z" fill="#FDFF00"/>
</svg>
