<svg width="15" height="15" viewBox="0 0 15 15" fill="none" xmlns="http://www.w3.org/2000/svg">
<path d="M0.522405 4.5335C0.810982 4.5335 1.04481 4.29961 1.04481 4.0111V1.7837L4.40945 5.14764C4.51149 5.24962 4.64516 5.3006 4.77882 5.3006C4.91256 5.3006 5.0463 5.24962 5.14827 5.14757C5.35229 4.94356 5.35229 4.61277 5.1482 4.40882L1.78342 1.04481H4.01131C4.29981 1.04481 4.53371 0.810912 4.53371 0.522405C4.53371 0.233898 4.29988 0 4.01131 0H0.522405C0.233829 0 0 0.233898 0 0.522405V4.01117C0 4.29961 0.233829 4.5335 0.522405 4.5335Z" fill="#D03732"/>
<path d="M14.4772 10.4661C14.1886 10.4661 13.9548 10.7 13.9548 10.9885V13.216L10.4866 9.74774C10.2825 9.54372 9.95176 9.54372 9.74774 9.74774C9.54372 9.95176 9.54372 10.2825 9.74774 10.4865L13.2159 13.9546H10.9886C10.7 13.9546 10.4662 14.1885 10.4662 14.477C10.4662 14.7655 10.7 14.9994 10.9886 14.9994H14.4772C14.7658 14.9994 14.9997 14.7655 14.9997 14.477V10.9885C14.9996 10.7 14.7657 10.4661 14.4772 10.4661Z" fill="#D03732"/>
<path d="M4.51219 9.74775L1.04432 13.2159V10.9885C1.04432 10.7 0.810494 10.4661 0.521917 10.4661C0.23334 10.4661 -0.000488281 10.7 -0.000488281 10.9885V14.4772C-0.000488281 14.7657 0.23334 14.9996 0.521917 14.9996H4.01047C4.29898 14.9996 4.53288 14.7657 4.53288 14.4772C4.53288 14.1887 4.29905 13.9548 4.01047 13.9548H1.78307L5.25101 10.4865C5.45503 10.2825 5.45503 9.95169 5.25094 9.74768C5.04706 9.54373 4.71628 9.54373 4.51219 9.74775Z" fill="#D03732"/>
<path d="M14.4776 0H10.9889C10.7003 0 10.4665 0.233898 10.4665 0.522405C10.4665 0.810912 10.7003 1.04481 10.9889 1.04481H13.2164L9.85222 4.40917C9.64821 4.61319 9.64821 4.94397 9.85229 5.14799C9.95427 5.24996 10.088 5.30095 10.2217 5.30095C10.3553 5.30095 10.4891 5.24989 10.5911 5.14792L13.9553 1.78356V4.0111C13.9553 4.2996 14.1891 4.5335 14.4777 4.5335C14.7662 4.5335 15.0001 4.2996 15.0001 4.0111V0.522405C15 0.233829 14.7661 0 14.4776 0Z" fill="#D03732"/>
</svg>
