<svg width="52" height="50" viewBox="0 0 51 49" fill="none" xmlns="http://www.w3.org/2000/svg">
<path d="M6.92857 25.1429L0 18.2144H18.5714L25.5 25.1429H6.92857Z" fill="#D0D2D4" fill-opacity="0.62"/>
<path d="M25.5 25.1426L32.1429 18.3569H51L44.0714 25.0712L25.5 25.1426Z" fill="#BCBEC0" fill-opacity="0.53"/>
<path d="M25.5001 25.1426V48.8569H10.7144L6.92871 25.1426H25.5001Z" fill="#E6E8EA" fill-opacity="0.47"/>
<path d="M44.0714 25.0713L25.5 25.1427V48.857H40.3571L44.0714 25.0713Z" fill="#D0D2D4" fill-opacity="0.38"/>
<path d="M12.7144 36.9283C13.3456 36.9283 13.8572 36.4166 13.8572 35.7854C13.8572 35.1543 13.3456 34.6426 12.7144 34.6426C12.0832 34.6426 11.5715 35.1543 11.5715 35.7854C11.5715 36.4166 12.0832 36.9283 12.7144 36.9283Z" fill="#C4C4C4"/>
<path d="M22.7141 36.9283C23.3453 36.9283 23.857 36.4166 23.857 35.7854C23.857 35.1543 23.3453 34.6426 22.7141 34.6426C22.083 34.6426 21.5713 35.1543 21.5713 35.7854C21.5713 36.4166 22.083 36.9283 22.7141 36.9283Z" fill="#C4C4C4"/>
<path d="M15.9089 36.9287C15.6436 36.9287 15.4235 37.1461 15.4788 37.4057C15.5702 37.834 15.7835 38.2306 16.0979 38.545C16.5266 38.9736 17.1081 39.2144 17.7142 39.2144C18.3204 39.2144 18.9018 38.9736 19.3305 38.545C19.6449 38.2306 19.8582 37.834 19.9496 37.4057C20.0049 37.1461 19.7848 36.9287 19.5195 36.9287C19.2541 36.9287 19.0471 37.1506 18.9529 37.3987C18.8871 37.5723 18.7848 37.7317 18.6511 37.8656C18.4025 38.114 18.0656 38.2536 17.7142 38.2536C17.3628 38.2536 17.0259 38.114 16.7774 37.8656C16.6436 37.7317 16.5414 37.5723 16.4755 37.3987C16.3814 37.1506 16.1744 36.9287 15.9089 36.9287Z" fill="#C4C4C4"/>
<rect x="25.4287" y="9.92822" width="0.714286" height="6" rx="0.357143" fill="#C4C4C4"/>
<rect x="19.0527" y="12.5073" width="0.714286" height="3.54289" rx="0.357143" transform="rotate(-28.4398 19.0527 12.5073)" fill="#C4C4C4"/>
<rect x="31.6201" y="13.8213" width="0.714286" height="2.04393" rx="0.357143" transform="rotate(46.2778 31.6201 13.8213)" fill="#C4C4C4"/>
<circle r="0.928571" transform="matrix(1 0 0 -1 13.2142 15.8571)" fill="#C4C4C4"/>
<ellipse rx="0.928571" ry="1" transform="matrix(1 0 0 -1 39.2145 14.9282)" fill="#828282"/>
<mask id="path-13-inside-1" fill="white">
<ellipse rx="1.71429" ry="1.64286" transform="matrix(1 0 0 -1 22.2858 1.85665)"/>
</mask>
<path d="M21.0001 1.85665C21.0001 2.72524 21.6974 3.2138 22.2858 3.2138V-2.7862C24.7678 -2.7862 27.0001 -0.826576 27.0001 1.85665H21.0001ZM22.2858 3.2138C22.8743 3.2138 23.5715 2.72524 23.5715 1.85665H17.5715C17.5715 -0.826576 19.8038 -2.7862 22.2858 -2.7862V3.2138ZM23.5715 1.85665C23.5715 0.988074 22.8743 0.499512 22.2858 0.499512V6.49951C19.8038 6.49951 17.5715 4.53989 17.5715 1.85665H23.5715ZM22.2858 0.499512C21.6974 0.499512 21.0001 0.988074 21.0001 1.85665H27.0001C27.0001 4.53989 24.7678 6.49951 22.2858 6.49951V0.499512Z" fill="#C4C4C4" mask="url(#path-13-inside-1)"/>
<path d="M36.5713 5.36211H39.857V6.06619H36.5713V5.36211Z" fill="#C4C4C4"/>
<path d="M37.8621 7.357L37.8621 4.07129L38.5662 4.07129L38.5662 7.357H37.8621Z" fill="#C4C4C4"/>
<path d="M11.5715 7.64824H14.8572V8.35232H11.5715V7.64824Z" fill="#C4C4C4"/>
<path d="M12.8623 9.64314L12.8623 6.35742L13.5664 6.35742L13.5664 9.64314H12.8623Z" fill="#C4C4C4"/>
</svg>
