<svg width="6" height="12" viewBox="0 0 6 12" fill="none" xmlns="http://www.w3.org/2000/svg">
<path d="M5.91795 5.32903C5.8132 5.15425 5.6287 5.0499 5.42443 5.0499H3.38668L3.98046 0.433921C4.00447 0.247217 3.89566 0.0766433 3.71585 0.0190894C3.53603 -0.0383861 3.34795 0.0370995 3.25841 0.202818L0.0694286 6.10555C-0.0274174 6.28481 -0.0227033 6.49618 0.0820517 6.67096C0.186807 6.84573 0.371306 6.95009 0.575579 6.95009H2.61333L2.01955 11.5661C1.99553 11.7528 2.10435 11.9233 2.28416 11.9809C2.32449 11.9938 2.36524 12 2.4052 12C2.54338 12 2.67215 11.9257 2.7416 11.7972L5.9306 5.89444C6.02742 5.7152 6.02268 5.50383 5.91795 5.32903ZM5.5847 5.70883L2.41416 11.577L3.03132 6.77923C3.0385 6.72342 3.02124 6.66725 2.98395 6.62502C2.94666 6.58279 2.89294 6.55859 2.83651 6.55859H0.575553C0.482321 6.55859 0.435207 6.49678 0.419284 6.47021C0.403361 6.44364 0.371097 6.37298 0.415277 6.29118L3.58585 0.422906L2.96868 5.22076C2.96151 5.27656 2.97876 5.33273 3.01606 5.37496C3.05335 5.4172 3.10706 5.44139 3.1635 5.44139H5.42445C5.51769 5.44139 5.5648 5.5032 5.58072 5.52977C5.59662 5.55637 5.62888 5.62703 5.5847 5.70883Z" fill="#FDFF00"/>
<path d="M5.5847 5.70883L2.41416 11.577L3.03132 6.77923C3.0385 6.72342 3.02124 6.66725 2.98395 6.62502C2.94666 6.58279 2.89294 6.55859 2.83651 6.55859H0.575553C0.482321 6.55859 0.435207 6.49678 0.419284 6.47021C0.403361 6.44364 0.371097 6.37298 0.415277 6.29118L3.58585 0.422906L2.96868 5.22076C2.96151 5.27656 2.97876 5.33273 3.01606 5.37496C3.05335 5.4172 3.10706 5.44139 3.1635 5.44139H5.42445C5.51769 5.44139 5.5648 5.5032 5.58072 5.52977C5.59662 5.55637 5.62888 5.62703 5.5847 5.70883Z" fill="#FDFF00"/>
</svg>
