<svg width="5" height="10" viewBox="0 0 5 10" fill="none" xmlns="http://www.w3.org/2000/svg">
<path d="M4.93163 4.44085C4.84433 4.29521 4.69058 4.20825 4.52036 4.20825H2.82223L3.31705 0.361601C3.33706 0.206014 3.24638 0.0638694 3.09654 0.0159079C2.9467 -0.0319884 2.78996 0.0309162 2.71534 0.169015L0.0578572 5.08795C-0.0228478 5.23734 -0.0189195 5.41348 0.0683764 5.55913C0.155672 5.70478 0.309422 5.79174 0.479649 5.79174H2.17777L1.68296 9.63838C1.66294 9.79397 1.75362 9.93612 1.90347 9.98408C1.93707 9.99482 1.97103 10 2.00434 10C2.11948 10 2.22679 9.93807 2.28467 9.83097L4.94217 4.91203C5.02285 4.76266 5.0189 4.58652 4.93163 4.44085ZM4.65392 4.75736L2.0118 9.64752L2.5261 5.64936C2.53208 5.60285 2.5177 5.55604 2.48662 5.52085C2.45555 5.48565 2.41079 5.46549 2.36376 5.46549H0.479627C0.401934 5.46549 0.362672 5.41398 0.349403 5.39184C0.336134 5.3697 0.309247 5.31082 0.346064 5.24265L2.9882 0.352422L2.4739 4.35063C2.46792 4.39713 2.4823 4.44394 2.51338 4.47914C2.54446 4.51433 2.58922 4.53449 2.63625 4.53449H4.52038C4.59807 4.53449 4.63733 4.586 4.6506 4.60814C4.66385 4.63031 4.69074 4.68919 4.65392 4.75736Z" fill="#979797"/>
<path d="M4.65392 4.75736L2.0118 9.64752L2.5261 5.64936C2.53208 5.60285 2.5177 5.55604 2.48662 5.52085C2.45555 5.48565 2.41079 5.46549 2.36376 5.46549H0.479627C0.401934 5.46549 0.362672 5.41398 0.349403 5.39184C0.336134 5.3697 0.309247 5.31082 0.346064 5.24265L2.9882 0.352422L2.4739 4.35063C2.46792 4.39713 2.4823 4.44394 2.51338 4.47914C2.54446 4.51433 2.58922 4.53449 2.63625 4.53449H4.52038C4.59807 4.53449 4.63733 4.586 4.6506 4.60814C4.66385 4.63031 4.69074 4.68919 4.65392 4.75736Z" fill="#979797"/>
</svg>
