<svg width="13" height="13" viewBox="0 0 13 13" fill="none" xmlns="http://www.w3.org/2000/svg">
<path d="M10.8501 5.40015C11.0087 5.55879 11.0087 5.81601 10.8501 5.97466C10.6914 6.13331 10.4342 6.13331 10.2756 5.97466L7.02563 2.72472C6.86698 2.56607 6.86698 2.30885 7.02563 2.1502C7.18427 1.99155 7.44149 1.99155 7.60014 2.1502L10.8501 5.40015Z" fill="#6384F7"/>
<path fill-rule="evenodd" clip-rule="evenodd" d="M0.48614 12.9919L4.54857 12.1794C4.62721 12.1637 4.69944 12.125 4.75616 12.0683L12.881 3.94344C13.0397 3.7848 13.0397 3.52758 12.881 3.36893L9.63107 0.118986C9.47242 -0.0396619 9.2152 -0.0396619 9.05656 0.118986L0.931697 8.24384C0.874986 8.30056 0.83633 8.37279 0.820601 8.45143L0.00811482 12.5139C-0.0487365 12.7981 0.201883 13.0487 0.48614 12.9919ZM12.0196 3.65612L4.269 11.4068L0.924713 12.0756L1.59357 8.73132L9.3442 0.980692L12.0196 3.65612Z" fill="#6384F7"/>
</svg>
