<svg xmlns="http://www.w3.org/2000/svg" width="16" height="16" viewBox="0 0 16 16">
    <path fill="#F1F1F3" fill-rule="nonzero" stroke="#95969B" d="M2.564.5c-.737 0-1.017.054-1.305.208a1.317 1.317 0 0 0-.551.551C.554 1.547.5 1.827.5 2.564v10.872c0 .737.054 1.017.208 1.305.128.239.312.423.551.551.288.154.568.208 1.305.208h10.872c.737 0 1.017-.054 1.305-.208.239-.128.423-.312.551-.551.154-.288.208-.568.208-1.305V2.564c0-.737-.054-1.017-.208-1.305a1.317 1.317 0 0 0-.551-.551C14.453.554 14.173.5 13.436.5H2.564z"/>
</svg>
